<svg xmlns="http://www.w3.org/2000/svg" viewBox="0 0 103.33 76.6"><defs><style>.cls-1{fill:#191102;}</style></defs><title>Ativo 45ldpi</title><g id="Camada_2" data-name="Camada 2"><g id="Camada_1-2" data-name="Camada 1"><path class="cls-1" d="M34.57,60.41c.52-1.26-.33-3.12-.59-4.33q-.93-4.45-1.9-8.9-1.86-8.51-3.82-17a3.77,3.77,0,0,0,1.28-1.14,2.49,2.49,0,0,0-.32-3.25A4.51,4.51,0,0,0,26.66,24c0-3.28-4.16-4.83-7-4.17a4.8,4.8,0,0,0-3.54,3.06,5.08,5.08,0,0,0-.23,1.34,2.65,2.65,0,0,0-2.12-.43,2.61,2.61,0,0,0-1.73,2.11,4.53,4.53,0,0,0-5.14-1.73c-1.87.73-3.76,3.37-2.81,5.37a3.38,3.38,0,0,0-2.5.68A4.37,4.37,0,0,0,0,34c.07,1.15.45,2.56,1.76,2.74a2,2,0,0,0,1.55-.45c-.52,3-.08,6.41,0,9.46.08,3.77.18,7.54.32,11.3a.45.45,0,0,0,.25.4,0,0,0,0,0,0,0,88.17,88.17,0,0,0,14,11.27q3.81,2.55,7.82,4.79c2.08,1.17,4.62,3.15,7.07,3a.46.46,0,0,0,.42-.65c1.34-.92,1-3.23,1.09-4.76C34.47,67.78,35.27,63.77,34.57,60.41ZM4.23,45.78c0-.72,0-1.46,0-2.21C8.38,47,33.1,66.68,33.56,66.37h0a.4.4,0,0,0,0,.43l0,.54c0,.88.06,2.51,0,4.13-4.39-3.88-9.45-7.15-14.14-10.62-5-3.69-10-7.39-15-10.93C4.3,48.55,4.26,47.16,4.23,45.78ZM33.62,65.2a31.09,31.09,0,0,0-4.08-3L21,55.57C15.44,51.32,10,46.92,4.24,43a29,29,0,0,0-.46-7.13,2.46,2.46,0,0,0,.34-.56,2.09,2.09,0,0,0,2.21.27c4.43,5.09,9.39,9.75,14.26,14.4q3.64,3.47,7.35,6.85c1.6,1.46,3.63,3.77,5.81,4.24C33.76,62.42,33.7,63.81,33.62,65.2ZM30.76,46.37c.57,2.59,1.13,5.19,1.69,7.78.19.86,1.28,3.67.95,4.45-.77,1.88-2.2-.38-3.08-1.16C22.23,50.29,14.77,42.5,6.88,35.13a2.58,2.58,0,0,0,.65-1.37c1.1,1.29,2.7,2.14,4.4,1.4a3.57,3.57,0,0,0,1.64-4.35c1,1.18,2.79,1.43,3.59.12,1.08,1.42,2.66,2.52,4.52,2a2.81,2.81,0,0,0,2-2.74,4.64,4.64,0,0,0,3.52.44Q29,38.49,30.76,46.37ZM1.18,35.25A3.85,3.85,0,0,1,1,32.68c.5-1.91,2-2.38,3.75-2.33a.28.28,0,0,0,.14-.51l-.12-.06a.09.09,0,0,0,0-.05c-.94-2.08,1.26-4.74,3.29-4.9C9.94,24.69,10.87,26,12,27.24a.32.32,0,0,0,.31.1c.12.24.46.05.42-.19a2.13,2.13,0,0,1,1.36-2.62c1.16-.24,1.74.64,2.18,1.54a.29.29,0,0,0,.54-.07,1,1,0,0,0,0-.35.2.2,0,0,0,0-.26l-.06-.07a1.49,1.49,0,0,0-.19-.45,4.62,4.62,0,0,1,1.27-3,4.42,4.42,0,0,1,3.25-1.21c2.13,0,4.44,1.15,4.61,3.46-.2.21-.19.62.15.68a2.44,2.44,0,0,1,.26.06h0c1.8.49,3.87,2.79,1.72,4.22a.55.55,0,0,0-.83.4A4.47,4.47,0,0,1,23.32,29a.15.15,0,0,0-.11,0,.39.39,0,0,0-.61.42,2,2,0,0,1-2.74,2.49,4.91,4.91,0,0,1-2.41-2.2c-.2-.31-.79-.33-.86.11q-2.05,1.7-3,.18a.24.24,0,0,0-.41.09.41.41,0,0,0-.07-.11.39.39,0,0,0-.7.3c.27,1.51.82,3.6-1.17,4.17-1.62.46-3-.77-3.92-2a.32.32,0,0,0-.46-.06.31.31,0,0,0-.37.33c0,.69.26,1.34-.31,1.89a1.49,1.49,0,0,1-2-.09c-.23-.21-.64.06-.45.35l.06.07C3.06,35.6,1.93,36.63,1.18,35.25ZM32.54,75.6c-2.81-.39-6.11-2.88-8.49-4.29q-3.28-1.95-6.45-4.1c-4.54-3.07-8.8-6.52-13.11-9.91a.48.48,0,0,0,0-.22l-.18-6.54C8.78,54.18,13.41,57.58,18,61c5,3.77,9.93,8,15.25,11.29a.35.35,0,0,0,.26,0A5.3,5.3,0,0,1,32.54,75.6Z"/><path class="cls-1" d="M30.73,50.42a.6.6,0,0,0-1-.27l-1,.58a28.23,28.23,0,0,0,0-4.69.61.61,0,0,0-1.12-.31L25.24,49c.17-3.58,1.8-7,1.74-10.63,0-.4-.51-.8-.88-.51-2,1.57-2.86,3.92-4.31,5.91,0-3.44,1.85-6.68,1.7-10.18a.61.61,0,0,0-1-.44,22.19,22.19,0,0,0-4.2,5.56,19.21,19.21,0,0,0-.81,1.79,3.25,3.25,0,0,1-.43-2c-.24-1.51-.25-3.09-.4-4.61,0-.35-.44-.73-.79-.46A7.2,7.2,0,0,0,13,37.77a.32.32,0,0,0,.61.17,6,6,0,0,1,2-3.06A25.11,25.11,0,0,0,16.06,41c.19.67.34,1.17,1.09,1.2.9,0,1.16-.87,1.52-1.53a31.93,31.93,0,0,1,3.55-5.45c-.37,3.46-2.12,6.67-1.48,10.26a.61.61,0,0,0,1,.27c1.64-1.75,2.43-4.18,4-6-.34,3.69-2,7.15-1.66,10.94A.6.6,0,0,0,25.2,51c.82-1.09,1.64-2.17,2.45-3.26a28.4,28.4,0,0,1-.23,4.11c-.05.41.43.67.77.59a4.4,4.4,0,0,0,1.55-.66,6.38,6.38,0,0,1-.13,2c-.12.73.95,1.07,1.12.31A8.3,8.3,0,0,0,30.73,50.42Z"/><path class="cls-1" d="M64.17,13.65C64,6.35,57.19,0,50.1,0,42,0,36,6.74,35.73,14.67c-2.31.31-4.36,3.69-2.8,5.68a3.68,3.68,0,0,0,3.53,1.16c.61,3.15,1.42,6.25,2.2,9.35.37,1.47.49,3.52,1.58,4.68,2.3,2.47,7.85,2.85,11,2.88,2.36,0,6.59.31,7.92-2.1,1.06-1.93,1.12-5.1,1.58-7.3q.93-4.43,1.84-8.86a3.22,3.22,0,0,0,4-.84A3.52,3.52,0,0,0,64.17,13.65ZM59.28,30.72c-.36,1.69-.42,4.06-1.6,5.32-1.42,1.52-4.46,1.35-6.46,1.32-3.28,0-9.38-.49-10.84-4-1.56-3.75-2.07-8.12-3.29-12a3.17,3.17,0,0,0,1.39-.9,2.38,2.38,0,0,0,2,2.51l.21,0c.3,3,.61,6.05,1.17,9a.25.25,0,0,0,.48-.07c-.25-3-.75-6-1.25-8.93a3.29,3.29,0,0,0,2.8-2.09A3.42,3.42,0,0,0,45.33,22c-.17,3.6-.44,7.65.16,11.18a.25.25,0,0,0,.47,0,54.17,54.17,0,0,0-.12-11,3.3,3.3,0,0,0,3.6-1.37l0,.07a109.64,109.64,0,0,0-.25,15.69.31.31,0,0,0,.62,0c.32-4.87.15-9.86.06-14.76a2.13,2.13,0,0,0,1.88,1,3.6,3.6,0,0,0,3.1-2.21,92.27,92.27,0,0,0-.62,11.26c0,.23.39.31.43.06a89.47,89.47,0,0,0,.71-11,2.5,2.5,0,0,0,2.75,1.24,2.8,2.8,0,0,0,.31-.09A96.19,96.19,0,0,0,56,32.3c-.08.46.59.67.72.2A95.26,95.26,0,0,0,59,21.79,4.15,4.15,0,0,0,61,18.29a2.91,2.91,0,0,0,.67,1.22C60.87,23.24,60.08,27,59.28,30.72Zm6.48-12.13c-1.36,1.83-3.79.83-4.34-1.14a.27.27,0,0,0-.43-.13.45.45,0,0,0-.85.19c-.17,1.57-.88,4.33-3.11,3.37-1.11-.46-1.31-1.58-1.54-2.67-.13-.61-1-.41-1,.14a3.06,3.06,0,0,1-.8,2.18c-.67,1.15-1.8,1.27-3.41.34a3.19,3.19,0,0,1-.4-1.22,3.73,3.73,0,0,0,.09-.84c0-.45-.72-.59-.8-.11-.45,2.76-3.75,3.77-5,.89-.16-.37-.74-.24-.83.11a2.13,2.13,0,0,1-.82,1.53q-1.43,2.11-3.38-1.65a.26.26,0,0,0-.37-.27.2.2,0,0,0-.21,0c-1.34,1-3.44,2.2-4.82.45-1.58-2,1.24-3.88,2.58-4.77a.19.19,0,0,0-.08-.34c.82-3.52,1.53-6.71,4.15-9.4a13.71,13.71,0,0,1,9.67-4.2c7.4.05,12,6.31,13.11,13.15a.42.42,0,0,0,.56.33C65.66,14.81,67.06,16.85,65.76,18.59Z"/><path class="cls-1" d="M44.86,5.66C44.4,5,43,4.42,42.37,5.18c0,0,0,0,0,0a1.77,1.77,0,0,0-.61,2.22,1.8,1.8,0,0,0,2.52.8A1.91,1.91,0,0,0,44.86,5.66Zm-.68,1.66a1,1,0,0,1-1.52.18,1.42,1.42,0,0,1-.18-1.83.16.16,0,0,0,.1,0c.51-.06.91-.25,1.4.08A1.09,1.09,0,0,1,44.18,7.32Z"/><path class="cls-1" d="M41.65,10.2a1.61,1.61,0,0,0-1.68.72h-.06c-1,.46-.53,1.83.07,2.42.85.82,2.47,1.08,3.07-.18A2.3,2.3,0,0,0,41.65,10.2Zm.63,2.88c-.87.92-2.64-.37-2.45-1.47A.89.89,0,0,0,40,12a.25.25,0,0,0,.47-.13A.88.88,0,0,1,41.83,11C42.37,11.42,42.8,12.52,42.28,13.08Z"/><path class="cls-1" d="M47.38,9.25A1.82,1.82,0,0,0,45.6,9a.12.12,0,0,0-.08,0,1.63,1.63,0,1,0,1.67,2.78A1.71,1.71,0,0,0,47.38,9.25Zm-.63,1.91a1,1,0,0,1-1.43-.25,1.14,1.14,0,0,1-.08-1,.23.23,0,0,0,.14,0c.45-.18.87-.51,1.36-.18A1,1,0,0,1,46.75,11.16Z"/><path class="cls-1" d="M55.55,5.22a1.26,1.26,0,0,0-1.44-1.15.15.15,0,0,0-.12.1h0a1.28,1.28,0,0,0-1,1.39,1.21,1.21,0,0,0,1.4,1A1.26,1.26,0,0,0,55.55,5.22ZM54.31,6c-.94.15-1-1.2-.28-1.52v0a.18.18,0,0,0,.07,0C54.89,4.62,55.31,5.83,54.31,6Z"/><path class="cls-1" d="M99.81,35.35c-3.7-2.42-7.06.92-9.76,3.11-2.82-1.16-5.64-2.71-8.42-3.44a22.08,22.08,0,0,0-14.14.56,18.73,18.73,0,0,0-9.41,8.74C56.19,48,55.16,52.19,53.67,56.1c-1.47.33-3.05-.32-4.49.33A5.71,5.71,0,0,0,46.63,59a8.7,8.7,0,0,0,.85,8.69A10.79,10.79,0,0,0,56,72.55c8.42,7.38,18.68,1.45,26-2.44,6.67-3.53,19.16-8,16.3-20.41,2.06-1.17,4.06-2.52,4.74-5.39A8.73,8.73,0,0,0,99.81,35.35ZM81.18,69.49c-7.35,3.89-15.73,8.2-24.26,3.1a26.4,26.4,0,0,0,9.75-2c4.16-1.61,8.06-3.91,12.13-5.76,3.5-1.6,8.35-1.9,11.11-5A15.27,15.27,0,0,0,92,56a10.87,10.87,0,0,1,4.54-5.29l1.17-.66C100,62,87.73,66,81.18,69.49Zm14-19c-2.79,1.89-3.35,5.14-5.31,7.94-2.39,3.43-7.5,3.75-10.93,5.29-7,3.14-13.84,8-21.85,7.83-4-.08-10.17-2.37-10.47-8.64-.13-2.71,1.4-5.17,3.47-5.77,1.16-.33,2.24,0,3.3-.21a27.3,27.3,0,0,1-1.78,3.69c-.19.31.2.75.4.46,2.73-3.85,3.72-9,5.52-13.57,2.3-5.89,6.44-9.93,11.7-11.6a21.09,21.09,0,0,1,10.22-.46c-.49,0-1,0-1.4,0-.25,0-.3.3-.19.51a.23.23,0,0,0-.09.31c.76,1.65,3.6,4.4,4.64,2.11a2.06,2.06,0,0,0-.87-2.43l-.08,0a33.52,33.52,0,0,1,3.79,1.24c1.44.57,2.9,1.31,4.38,2,0,.33.33.69.61.46l.16-.12c2.64,1.12,5.29,1.91,7.87,1,.4-.13.16-.87-.24-.78a11.92,11.92,0,0,1-7-.83c1.52-1.3,3.28-2.94,5-3.24,3-.51,6.1,1.94,6.45,5.93C103,47.23,98.21,48.4,95.15,50.46ZM81.54,38.23c-1.07.84-2.63-1.15-3.45-2.12.69,0,1.38,0,2.07.11a2.84,2.84,0,0,1,.85.16C81.76,36.69,82.22,37.69,81.54,38.23Z"/><path class="cls-1" d="M61,47.05,61,47c.12-.14-.08-.42-.23-.31-1.09.86-4.11,4.63-1.88,6.46.86.7,1.62-.13,2-1a10,10,0,0,0,.34-4.78A.43.43,0,0,0,61,47.05Zm-.73,4.69c-.24.58-1,1.31-1.32.19a4.43,4.43,0,0,1,.69-2.81,9,9,0,0,1,1-1.61,11.31,11.31,0,0,1,0,2.79A6.45,6.45,0,0,1,60.22,51.74Z"/><path class="cls-1" d="M65.92,45.76l0,0c0-.14-.19-.26-.26-.12a.16.16,0,0,0,0,.07.36.36,0,0,0-.17.33,6.44,6.44,0,0,0-.54,3.45c.1.94.41,2.48,1.41,2.56s1.32-1.1,1.34-2A7.3,7.3,0,0,0,65.92,45.76Zm1,4.4c-.07.61-.54,1.69-1.18.48a6.31,6.31,0,0,1-.09-4.1,9.22,9.22,0,0,1,1.1,2.17A3.43,3.43,0,0,1,66.93,50.16Z"/><path class="cls-1" d="M74.7,45.94a4.81,4.81,0,0,0-3.42-2.74.23.23,0,0,0-.23,0,.13.13,0,0,0-.21.1,7,7,0,0,0,.75,4.52c.59,1,1.6,1.71,2.48,1.23S75.17,47.11,74.7,45.94Zm-.44,1.43c-.09.68-.61,1.19-1.21,1-1.41-.52-1.82-2.84-1.9-4.41l0,0a5.6,5.6,0,0,1,2.31,1.33A2.69,2.69,0,0,1,74.26,47.37Z"/><path class="cls-1" d="M78.68,40.66a4.83,4.83,0,0,0-3.36-1.26c-.34,0-.34.52-.08.7a5,5,0,0,0,1.6,3.42c.78.66,1.92.84,2.42-.12A2.59,2.59,0,0,0,78.68,40.66Zm.11,2c-.27,1.24-1.58.43-2.11-.22a6.08,6.08,0,0,1-1.12-2.28,6,6,0,0,1,1.86.45C78.06,40.92,79,41.7,78.79,42.67Z"/><path class="cls-1" d="M91,45.72c-2.21,1.77-3.24,4.91-4.69,7.51-2.45,4.4-6.09,5.07-10.49,5.13a19,19,0,0,0-9.36,2.06c-3.13,1.78-8.17,8.7-11.82,2.65-.1-.16-.33-.07-.25.12a4.36,4.36,0,0,0,6.19,2.41c1.88-.93,3.32-2.74,5.07-3.93A15.77,15.77,0,0,1,74.1,59c3.63-.13,7.65.37,10.5-2.4s4-7.43,6.67-10.46C91.44,46,91.16,45.57,91,45.72Z"/></g></g></svg>