<svg xmlns="http://www.w3.org/2000/svg" viewBox="0 0 102 77.33"><defs><style>.cls-1{fill:#191102;}</style></defs><title>icone-salgados-sidenavldpi</title><g id="Camada_2" data-name="Camada 2"><g id="Camada_1-2" data-name="Camada 1"><path class="cls-1" d="M101.58,64.79c1.36-5.4-.61-10.67-5.29-13.07a2.46,2.46,0,0,0,2.16-3.08,3,3,0,0,0-1.76-2.17,3.32,3.32,0,0,0-2-.12C94.86,39.1,93.5,31.59,89.07,26c-4.78-6-11.72-7.32-18.7-6.34-6.18.87-12.43,3.56-16.68,8.69-4.43,5.36-5.89,12.55-6,19.58a4.15,4.15,0,0,0-3.16-.79,3,3,0,0,0-1,5.11,2.74,2.74,0,0,0,1.11.54,3.5,3.5,0,0,0-.17,4.43,11,11,0,0,0-2.19,7.14c-.21.08-.27.45,0,.52l.19.05a.36.36,0,0,0,.35.09l.68.18a3,3,0,0,0,.93.17.19.19,0,0,0,.29.12,25.73,25.73,0,0,1,3.65-1.87c-.5,1.91-.33,3.89,1,5-1.24,3.08-1.54,7.06,2,8.25,2.56.87,5.68.37,8.32.37,3.67,0,7.35,0,11-.07L81.15,77c2.42,0,5.29.36,7.58-.7,3.34-1.55,3.31-5.5,2.11-8.69a4.84,4.84,0,0,0,2-5.72A33,33,0,0,1,96.77,64c.91.56,2.07,1.81,3.08,2s2-.1,1.71-1.21C101.56,64.82,101.57,64.81,101.58,64.79ZM94.5,49.05a.61.61,0,0,0,.07-.25c0-.48.06-1,.08-1.44a3.4,3.4,0,0,1,1-.18,2.07,2.07,0,0,1,1.77,1.16c.65,1.3-.23,2.87-1.54,2.65a2.13,2.13,0,0,0,.45-1.37c0-.31-.43-.49-.59-.17a7.85,7.85,0,0,1-.57,1.25,2.43,2.43,0,0,1-.33.38l-.07.06a2.68,2.68,0,0,1-.67.44c-.3.14-.09.68.22.58a3.27,3.27,0,0,0,.7-.35,1.22,1.22,0,0,1-.8,2.12c-1.12.15-2.08-.71-3-1.31-.18-.12-.36.07-.34.26a.44.44,0,0,0-.35.56,1.6,1.6,0,0,1-.63,1.87,1.45,1.45,0,0,1-1.86-.68.22.22,0,0,0-.39.18l0,0a.31.31,0,0,0-.08.29c.38,1.85-1.24,2.41-2.46,1.48-.38-.29-.76.26-.59.64q-1,2.7-2.48,1a3.89,3.89,0,0,1-.59-.9A5.21,5.21,0,0,1,81,55.83a1.08,1.08,0,0,0,0-.31,3.12,3.12,0,0,0,1.29,0c.28-.08.23-.47,0-.57a3.61,3.61,0,0,0-1.46-.18,2.29,2.29,0,0,0-1.27.12.19.19,0,0,0,0,.3,1.44,1.44,0,0,0,.73.24,4.33,4.33,0,0,1-.21.7,1.76,1.76,0,0,1-1.06.93c-1.06.3-1.94-.73-2-1.8a.21.21,0,0,0-.28-.21,2.2,2.2,0,0,0,0-.92,48.4,48.4,0,0,0,5.58-.64c3.89-.69,8.78-1.06,12-3.77A.7.7,0,0,0,94.5,49.05ZM74,65.51a24.05,24.05,0,0,1,7.39-6.76,2.62,2.62,0,0,0,.22.25c-3.26,1.4-6.06,5.53-7.54,8.85,0-.46,0-.92,0-1.39A3.61,3.61,0,0,0,74,65.51ZM54.47,29.17c4-4.75,9.74-7.23,15.48-8.13,6.74-1.06,13.59,0,18.23,5.89C93,33,93.62,41.07,93.58,48.74c-3,2.27-7.44,2.72-11,3.38A57.49,57.49,0,0,1,70,52.91c-7.23-.26-15.07.22-21.64-3.57h0C48.78,42.18,49.88,34.67,54.47,29.17ZM73,55.84c.59.74-.26,1.52-.87,1.51a2.13,2.13,0,0,1-1.16-.48c-.26-.19-.53.22-.33.45l.2.19c0,2.55-4.11.68-3.67-.45.16-.4-.32-1-.63-.53a3.41,3.41,0,0,1-.86.95c-1.32.29-2-.09-2.07-1.11a2.54,2.54,0,0,0,1.36-.23.4.4,0,0,0-.18-.72,12.07,12.07,0,0,1-1.47.08c-.44,0-.87-.27-1.3-.17a.22.22,0,0,0-.12.32,1.25,1.25,0,0,0,.81.56c-.6,1-1.52,1.66-2.65,1a3.09,3.09,0,0,1-1.08-3.47c3.71.38,7.51.29,11,.43,2,.09,4,.1,5.91,0a1.57,1.57,0,0,1-.58,1.35,1.19,1.19,0,0,1-1.69-.4C73.22,54.63,72.59,55.35,73,55.84ZM45.73,52.7a1.41,1.41,0,0,0,.41-.26.35.35,0,0,0-.13-.55.17.17,0,0,0-.14,0,3.51,3.51,0,0,1-1.54-.39,1.84,1.84,0,0,1-.68-2.08c.59-2,2.71-1.29,4-.74,0,.32,0,.64,0,1a.3.3,0,0,0,.1.24.43.43,0,0,0,.14.19,21.74,21.74,0,0,0,10.42,3.63.69.69,0,0,0,0,.13.28.28,0,0,0-.2,0c-.45.13-.7.6-1.2.67a1.43,1.43,0,0,1-1.43-.62A.27.27,0,0,0,55,54a.32.32,0,0,0-.07.49c1.59,1.8-1.92,3.54-2.42,1.44a.37.37,0,0,0-.69-.1c-.71,1.29-2,.83-2.46-.28a2.1,2.1,0,0,0,1.31-.15c.27-.12.18-.6-.09-.67-.46-.11-.93-.08-1.4-.18a3.54,3.54,0,0,1-.95-.37.23.23,0,0,0-.13-.22,1.43,1.43,0,0,0-.5-.09.39.39,0,0,0-.24.66,4.92,4.92,0,0,0,1,.66,5.2,5.2,0,0,1-.87,1.54,1.48,1.48,0,0,1-2.3-.07C44,55.29,44.82,53.8,45.73,52.7Zm-.82,4.9c1.52,1.22,3.38,0,3.9-1.76a1.87,1.87,0,0,0,3.25.91,2.31,2.31,0,0,0,3.25.46,2.17,2.17,0,0,0,.74-2.09,2.07,2.07,0,0,0,.77.15,2.31,2.31,0,0,0,1.31-.44,3.39,3.39,0,0,0,1.78,3.35A2.59,2.59,0,0,0,63,57.42c.5,1.27,2.31,1.49,3.45.53.42,1.06,1.82,1.52,2.93,1.58.93.06,2.09-.58,2.13-1.54a1.71,1.71,0,0,0,1.88-.19A1.87,1.87,0,0,0,74,56.63a1.91,1.91,0,0,0,1.77-.2,2.26,2.26,0,0,0,.75-.94,2.36,2.36,0,0,0,2.37,2.35,2.91,2.91,0,0,0,1.64-1A5.56,5.56,0,0,0,81,58a18.38,18.38,0,0,0-7.5,7.09,24.22,24.22,0,0,0-16.92-6.31,23.45,23.45,0,0,0-9.15,2.26c-.54.26-3.48,2.45-4,2.35C42.43,63.2,44.32,58.82,44.91,57.6Zm3.88,4.84a.5.5,0,0,1,0,.13,19.44,19.44,0,0,0-4,2.37.2.2,0,0,0-.08-.1,2.45,2.45,0,0,0-1-.29l-.07,0c9.23-6.67,20.62-6,29.39,1.37a.41.41,0,0,0,.27.1c0,.23,0,.46,0,.68s0,.39.06.59c-6.81-5.54-16.18-8.11-24.16-4.86A.21.21,0,0,0,48.79,62.44ZM86.88,75.59a22.73,22.73,0,0,1-5.08.25l-11.66.08c-3.67,0-7.34,0-11,.1-1.79,0-3.61.15-5.4.06-4.39-.24-4.46-3.72-3.88-7.24a3.76,3.76,0,0,0,1,.42c3.2.8,7.08.37,10.36.49,3.12.12,6.25.21,9.37.23S84.5,71,90,68.19C91.13,71.41,90.33,74.75,86.88,75.59Zm-17-6.85q-5.36,0-10.71-.23l-5.36-.2c-2-.08-1.84.13-3.42-1.87C49,64.66,49,64.72,49.14,63.31c8.41-3.12,17-.76,24.41,5.28.24.2.52,0,.6-.28a.3.3,0,0,0,.48-.08A30.64,30.64,0,0,1,78,63.32c1.2-1.39,2.71-2.39,3.91-3.75a.39.39,0,0,0,.08-.2,2.54,2.54,0,0,0,1.27.53,1.94,1.94,0,0,0,1.48-.45,39.17,39.17,0,0,1,6.86,2C94.33,70.5,74.4,68.76,69.92,68.74Zm28.71-4.47c-.69-.36-1.33-.86-2-1.25a35.7,35.7,0,0,0-3.78-1.85l-.21-.08h0a.54.54,0,0,0-.8-.29A32.35,32.35,0,0,0,85.16,59h0a26.7,26.7,0,0,1,15.63,5.91C100.82,65.22,98.7,64.3,98.63,64.27Zm1-1.36c-1-.49-1.88-1.23-2.88-1.74a23.31,23.31,0,0,0-11.32-2.59,2.23,2.23,0,0,0,.14-.69,2.06,2.06,0,0,0,3-2,1.78,1.78,0,0,0,1.68.22,2.22,2.22,0,0,0,1.3-2.14.33.33,0,0,0,0-.17c0-.08,0-.14,0-.2,1.17,1.09,2.85,1.92,4.2.73a2.48,2.48,0,0,0,.61-2,10.87,10.87,0,0,1,4.88,8.14C101.37,62.71,101.69,64,99.59,62.91Z"/><path class="cls-1" d="M68.92,23.76a1.71,1.71,0,0,0-2.54,1.86,1,1,0,0,0,1.44.43,2.13,2.13,0,0,0,.78-1.92.33.33,0,0,0,0-.12.78.78,0,0,1,.27,0C69,24.06,69.07,23.83,68.92,23.76Zm-1.13,1.41c-.19.27-.83.48-.73-.1a1.47,1.47,0,0,1,1.08-1A3.17,3.17,0,0,1,67.79,25.17Z"/><path class="cls-1" d="M73.09,22.69a2.79,2.79,0,0,0-2-.57.12.12,0,0,0-.11.09.24.24,0,0,0-.23.29c.14.89,1.82,2.69,2.62,1.62A1.1,1.1,0,0,0,73.09,22.69Zm-.33,1.14c-.35,0-.71-.36-.93-.6a9.45,9.45,0,0,1-.59-.82,3.57,3.57,0,0,1,1.23.45C72.68,23,73.48,23.81,72.76,23.83Z"/><path class="cls-1" d="M70.49,24.19c-.19-.16-.51.1-.42.35a1.89,1.89,0,0,0,.11.25,2.31,2.31,0,0,0-.9,2,1.31,1.31,0,0,0,1.15,1.1C72.1,27.91,71.3,24.82,70.49,24.19Zm-.06,2.93c-.45.06-.55-.66-.47-1a3.29,3.29,0,0,1,.43-.91,3.43,3.43,0,0,1,.19.48C70.66,26,70.9,27.07,70.43,27.12Z"/><path class="cls-1" d="M52.41,45.65a.3.3,0,0,0-.13-.23c0-.13-.05-.3-.19-.25a2.57,2.57,0,0,0-1.49,1.21c-.29.52-.57,1.41-.14,1.94s1.07.2,1.42-.25A3.81,3.81,0,0,0,52.41,45.65Zm-.75,1.4c-.08.23-.2.63-.43.73s-.33,0-.3-.31a2.64,2.64,0,0,1,.92-1.69A4.54,4.54,0,0,1,51.66,47.05Z"/><path class="cls-1" d="M55.54,47.66a4.57,4.57,0,0,0-1.82-2.25.34.34,0,0,0-.49.32,3.43,3.43,0,0,0,.14,2.48c.29.63.91,1.24,1.61,1.09S55.79,48.29,55.54,47.66Zm-.85.88c-.45,0-.79-.68-.92-1.06a2.91,2.91,0,0,1-.16-1.24,5.19,5.19,0,0,1,.77.85C54.56,47.35,55.35,48.53,54.69,48.54Z"/><path class="cls-1" d="M91.77,45.76a.22.22,0,0,0-.41-.06,1.94,1.94,0,0,0-.11,1.07c0,.31.28,1.42-.26,1.53-.9.19.24-2.45.37-2.71a.19.19,0,0,0-.29-.24c-.74.64-2,3.27-.49,3.78.6.2,1.15-.33,1.37-.9A4.64,4.64,0,0,0,91.77,45.76Z"/><path class="cls-1" d="M89.25,44.38a2.41,2.41,0,0,0-2.1.32,1.5,1.5,0,0,0-.4,1.87c1,1.84,2.64-.72,3-1.77C89.85,44.5,89.48,44.22,89.25,44.38Zm-1.76,1.83c-.34-.35.07-.86.35-1a2.09,2.09,0,0,1,1.07-.28C88.52,45.55,87.87,46.6,87.49,46.21Z"/><path class="cls-1" d="M91.8,42.26a2.15,2.15,0,0,0-2-.59.31.31,0,0,0-.25.14.21.21,0,0,0-.27.19,2.07,2.07,0,0,0,.76,1.79c.48.39,1.3.65,1.76.09A1.38,1.38,0,0,0,91.8,42.26Zm-.45,1.15c-.25.31-.85-.1-1.06-.3a2,2,0,0,1-.46-.72h0a2.17,2.17,0,0,1,1.26.16C91.32,42.7,91.57,43.15,91.35,43.41Z"/><path class="cls-1" d="M51.2,64.62A.34.34,0,0,1,51,64c.15-.1.06-.42-.13-.34-.83.35-.47,1.67.4,1.38C51.46,65,51.43,64.61,51.2,64.62Z"/><path class="cls-1" d="M52.19,63.93c-.23.08-.14.47.11.4.49-.13.93.45.83,1,0,.16.17.27.25.11A1,1,0,0,0,52.19,63.93Z"/><path class="cls-1" d="M54,67c-.38.15-.95.47-1.35.24a.67.67,0,0,1-.19-1,.15.15,0,0,0-.17-.24,1.07,1.07,0,0,0-.13,1.57,1.35,1.35,0,0,0,2-.21C54.37,67.18,54.26,66.85,54,67Z"/><path class="cls-1" d="M58.48,64.8a2.23,2.23,0,0,1-.67-.38c-.17-.15-.33-.5-.1-.68s0-.51-.21-.37a.9.9,0,0,0-.32,1.06,1.4,1.4,0,0,0,1.14.8C58.54,65.28,58.72,64.91,58.48,64.8Z"/><path class="cls-1" d="M60.21,63.42a.85.85,0,0,0-1.21.3.27.27,0,1,0,.45.28c.15-.27.52-.11.66.08a3.32,3.32,0,0,1,.36,1,.2.2,0,0,0,.4-.06A1.75,1.75,0,0,0,60.21,63.42Z"/><path class="cls-1" d="M59.93,66c-.25.1-.79.46-.55.84a.24.24,0,0,0,.45-.13s0,0,0,0a.75.75,0,0,1,.81-.08,1.24,1.24,0,0,1,.47.85.24.24,0,0,0,.47,0A1.26,1.26,0,0,0,59.93,66Z"/><path class="cls-1" d="M67.78,66.5c-.34,0-.85.17-1.15-.06s-.28-.6,0-.72.14-.33,0-.31c-.5,0-.63.63-.45,1.08.29.74,1.14.64,1.71.42C68,66.84,68,66.48,67.78,66.5Z"/><path class="cls-1" d="M69.6,66.49A1.12,1.12,0,0,0,68.18,66c-.23.09-.14.46.1.39a.71.71,0,0,1,.85.43c.14.36,0,.63-.18.94a.26.26,0,0,0,.33.36A1.26,1.26,0,0,0,69.6,66.49Z"/><path class="cls-1" d="M79.82,66.54a.73.73,0,0,1-.78.58,1.62,1.62,0,0,1-.53-.11s-.34-.21-.25-.21c.26,0,.3-.41.06-.48a.51.51,0,0,0-.65.49c0,.45.34.71.68.84.79.3,2.12.1,2-1.11A.26.26,0,1,0,79.82,66.54Z"/><path class="cls-1" d="M78.74,64.1a1.19,1.19,0,0,0-1.5.7c-.11.24.19.43.32.21a.76.76,0,0,1,1-.33c.36.18.38.55.47.92a.23.23,0,0,0,.43.06A1.27,1.27,0,0,0,78.74,64.1Z"/><path class="cls-1" d="M82.33,63.83c-.42.16-1,.58-1.5.35-.25-.13-.5-.65-.19-.85a.25.25,0,0,0-.23-.43c-.61.29-.52,1.18-.14,1.63.64.75,1.69.27,2.3-.25C82.77,64.12,82.56,63.74,82.33,63.83Z"/><path class="cls-1" d="M87.47,62.72A1.23,1.23,0,0,0,87,64.3c.09.23.46.07.38-.17a.67.67,0,0,1,.33-.9.7.7,0,0,1,.77.44c.14.26.46.08.42-.19A1,1,0,0,0,87.47,62.72Z"/><path class="cls-1" d="M88.16,61.14a2,2,0,0,1-.65.46,1.19,1.19,0,0,1-.67,0v0a.31.31,0,0,0-.56-.22c-.27.33.09.66.35.8a1.39,1.39,0,0,0,1.91-.67C88.62,61.24,88.35,61,88.16,61.14Z"/><path class="cls-1" d="M11.3,15.13a2.79,2.79,0,0,0-3.53,1.43s-.06,0-.07.07C6,20.14,11.92,22.68,13.16,19A3.23,3.23,0,0,0,11.3,15.13Zm1,4c-1,1.57-2.79,1.18-3.75,0a2.87,2.87,0,0,0,1.65.65A1.94,1.94,0,0,0,12.16,17c-.08-.16-.3-.05-.26.12.7,2.8-4,2.54-3.83.12.59-1.4,1.83-2.31,3.26-1.48A2.5,2.5,0,0,1,12.33,19.1Z"/><path class="cls-1" d="M9.78,17.56a.42.42,0,0,1-.66-.47A.1.1,0,1,0,8.93,17a.62.62,0,0,0,1,.73C10,17.66,9.89,17.48,9.78,17.56Z"/><path class="cls-1" d="M10.86,16.14a1,1,0,0,0-1.18-.2.16.16,0,0,0,.11.29,1.21,1.21,0,0,1,1,.08A.11.11,0,0,0,10.86,16.14Z"/><path class="cls-1" d="M11,16.83l-.12.25s0,0,0,0l.12-.25S11,16.81,11,16.83Z"/><path class="cls-1" d="M11.17,18c-.07.1-.27.21-.37.11a.29.29,0,0,1,.09-.42c.19-.09.06-.43-.14-.36a.74.74,0,0,0-.27,1.13.6.6,0,0,0,1-.3A.19.19,0,0,0,11.17,18Z"/><path class="cls-1" d="M25.14,30.44c-.15,0-.46.18-.37.41a.15.15,0,0,0,.28,0,.06.06,0,0,0,0-.09l.2,0a1.51,1.51,0,0,1-.4.43.27.27,0,0,1-.34,0,.22.22,0,0,1-.06-.33c.13-.12-.06-.32-.18-.2-.29.27-.07.74.23.87s.84-.3,1-.7l.09.05a.77.77,0,0,1,.33.52c0,.16.21.1.22,0A.84.84,0,0,0,25.14,30.44Z"/><path class="cls-1" d="M26.11,32.49a.58.58,0,0,1-.47.28c-.25,0,0-.3.14-.25a.11.11,0,0,0,.1-.2c-.37-.3-.94.24-.69.69a.64.64,0,0,0,.7.21.72.72,0,0,0,.52-.59C26.45,32.43,26.21,32.3,26.11,32.49Z"/><path class="cls-1" d="M23,38.33s0,0,0,0a4.12,4.12,0,0,0-.54-1.44c-.82-1.31-2.8-2.26-3.94-.84a.21.21,0,0,0,0,.24,3.72,3.72,0,0,0-1.1,3.55c.09,2.07,1,4.08,3.31,3.78A3.49,3.49,0,0,0,23,38.33Zm-4.17-2a2.23,2.23,0,0,1,3.23,1c.75,1.45.39,3.55-1.15,4.15a2.22,2.22,0,0,1-2.86-1.8A4,4,0,0,1,18.85,36.29Zm1.37,6.83a2.29,2.29,0,0,1-2.2-2,2.6,2.6,0,0,0,3.61.75A3.23,3.23,0,0,0,23,39.68C23.16,41.45,22.1,43.18,20.22,43.12Z"/><path class="cls-1" d="M20.26,39.68a.12.12,0,0,0-.23,0c0,.39-.26.84-.65.76a.68.68,0,0,1-.44-.85.1.1,0,1,0-.19-.06.91.91,0,0,0,.64,1.2A.87.87,0,0,0,20.26,39.68Z"/><path class="cls-1" d="M19.54,38.34a.46.46,0,0,0-.37.69c.08.13.27,0,.2-.13s.07-.24.15-.26a.26.26,0,0,1,.24.09,1,1,0,0,1,.19.4c0,.11.22.11.21,0C20.13,38.75,19.91,38.32,19.54,38.34Z"/><path class="cls-1" d="M21.53,39.05a.11.11,0,0,0-.22,0,.91.91,0,0,1-.49.77.2.2,0,0,1,0-.16c.11-.14-.05-.3-.18-.19a.51.51,0,0,0,0,.71.16.16,0,0,0,.17.05A1,1,0,0,0,21.53,39.05Z"/><path class="cls-1" d="M20.21,37.12c-.08.18-.21.39-.43.35s-.28-.38-.18-.57-.1-.27-.18-.15a.74.74,0,0,0,.19,1.07.64.64,0,0,0,.93-.6C20.53,37,20.29,36.93,20.21,37.12Z"/><path class="cls-1" d="M15.34,27.83a3.14,3.14,0,0,0-.28-.46,3.43,3.43,0,0,0-2.13-1.21,1.06,1.06,0,0,0-1.24.46l-.16.05c-1.51,0-1.9,2.2-1.44,3.48a3,3,0,0,0,.19.41A3,3,0,0,0,14,33.3,3.42,3.42,0,0,0,15.34,27.83Zm-4.41-.09a3,3,0,0,1,.39-.41c.24-.06.27-.16.49-.32a1.67,1.67,0,0,1,.16-.12,2.48,2.48,0,0,1,.35-.13s0,0,0,0a1.62,1.62,0,0,1,1,.14,2.44,2.44,0,0,1,1.42,3.42,2.2,2.2,0,0,1-3.35.63,3.17,3.17,0,0,1-.94-2A2.84,2.84,0,0,1,10.93,27.74Zm3,5.1a2.6,2.6,0,0,1-3.19-1.68,2.82,2.82,0,0,0,3.52.61,3.06,3.06,0,0,0,1.43-2.56A2.88,2.88,0,0,1,13.89,32.84Z"/><path class="cls-1" d="M14,29.26a.18.18,0,0,0-.33.09c0,.27-.09.61-.36.65s-.52-.34-.46-.64a.13.13,0,1,0-.24-.07.84.84,0,0,0,.69,1.13A.83.83,0,0,0,14,29.26Z"/><path class="cls-1" d="M13,27.55a.45.45,0,0,0-.33.6.16.16,0,0,0-.26.07.75.75,0,0,1-.62.44c-.26,0-.8-.15-.39-.47.12-.09,0-.28-.11-.21s-.52.38-.37.67a.93.93,0,0,0,.59.44,1,1,0,0,0,1.25-.71.14.14,0,0,0,0-.09.09.09,0,0,0,.12-.13.21.21,0,0,1,.09-.32.32.32,0,0,1,.33.16,1.53,1.53,0,0,1,.18.64c0,.14.23.1.23,0C13.73,28.16,13.54,27.51,13,27.55Z"/><path class="cls-1" d="M24.55,15.89a.07.07,0,0,0-.09,0,2.71,2.71,0,0,0-.34-.73c-.73-1-2.41-1.54-3.25-.46a.1.1,0,0,0-.09,0,2.79,2.79,0,0,0-1.15,3.2c-.26,1.67,2.24,2.88,3.48,2.47C24.86,19.76,25.36,17.53,24.55,15.89Zm-3.86-.79c0,.09.13.16.23.09a2,2,0,0,1,1.61-.58A2,2,0,0,1,24,16a2.43,2.43,0,0,1-1.17,2.86,2,2,0,0,1-2.56-1A2.65,2.65,0,0,1,20.69,15.1Zm2.74,4.62A2.69,2.69,0,0,1,20.32,19a2.55,2.55,0,0,0,3.12.28A2.94,2.94,0,0,0,24.6,17,2.76,2.76,0,0,1,23.43,19.72Z"/><path class="cls-1" d="M21.7,16.32a.1.1,0,0,0-.18.08.31.31,0,0,1-.18.36c-.17,0-.3-.17-.23-.35s-.13-.28-.2-.13a.55.55,0,0,0,.38.8A.51.51,0,0,0,21.7,16.32Z"/><path class="cls-1" d="M21.58,15.73c-.11.13.06.32.18.2s.62,0,.57.36c0,.15.16.21.21.06A.58.58,0,0,0,21.58,15.73Z"/><path class="cls-1" d="M22.25,18a.45.45,0,0,1-.38.25.65.65,0,0,1,.4-.73.12.12,0,0,0-.06-.23,1,1,0,0,0-.69,1.2c.09.22.41.22.59.17a.64.64,0,0,0,.43-.57A.16.16,0,0,0,22.25,18Z"/><path class="cls-1" d="M23.33,16.81c0,.18-.32.28-.42.1s-.2,0-.17.08a.42.42,0,0,0,.82-.18A.12.12,0,0,0,23.33,16.81Z"/><path class="cls-1" d="M22.27,8.28c-.13-.9-.68-1.92-1.54-2a2.22,2.22,0,0,0-3,.4,2.27,2.27,0,0,0-.54,2.9,2.48,2.48,0,0,0,4.1,1.5A3.15,3.15,0,0,0,22.27,8.28ZM17.69,7.17a.18.18,0,0,0,.13,0c.78-.77,1.88-1.23,2.8-.41a2.08,2.08,0,0,1-.06,3.18,2.21,2.21,0,0,1-2.83-.48A2,2,0,0,1,17.69,7.17Zm3,3.73a2.05,2.05,0,0,1-2.83-.6,2.55,2.55,0,0,0,3.15-.11,2.57,2.57,0,0,0,.68-2.39,3.31,3.31,0,0,1,.13,1.11A2.45,2.45,0,0,1,20.74,10.9Z"/><path class="cls-1" d="M19.2,7.91c-.06.21-.32.36-.49.24a.4.4,0,0,1,0-.62c.11-.07,0-.25-.1-.19a.68.68,0,0,0-.11,1.08A.59.59,0,0,0,19.45,8C19.47,7.79,19.24,7.77,19.2,7.91Z"/><path class="cls-1" d="M19.46,7.06c-.14,0-.08.25.06.23.37,0,.62.39.53.75,0,.12.14.2.19.08A.76.76,0,0,0,19.46,7.06Z"/><path class="cls-1" d="M19,9.16a.09.09,0,0,0,.17.07A.49.49,0,0,1,19.64,9c.21,0,.29.23.36.43a.12.12,0,0,0,.24,0A.63.63,0,0,0,19,9.16Z"/><path class="cls-1" d="M45.39,24.8a.36.36,0,0,0,0-.1c.36-9.11-4.62-18-12-22.12C25.57-1.69,16.13-.51,9.1,5,1.86,10.68-1,21.2.29,30.53s6.08,16.39,14.4,19c8.48,2.62,21.3,1.32,24.91-9a.22.22,0,0,0-.14-.28c.71-2.8-3.47-3.23-5-4.19s-3.17-2.24-4.72-3.43a.21.21,0,0,0-.11-.08c-.54-.41-1.07-.82-1.61-1.21a47.38,47.38,0,0,1-5.86-4.64Q29,26.33,35.88,26A24.42,24.42,0,0,1,39,25.87c.93.07,1.74.49,2.66.59a5.18,5.18,0,0,0,3.72-1.14A.37.37,0,0,0,45.39,24.8ZM28.51,32.58l.71.52c-.61,1.28-1.53,2.32-3.06,2a2.82,2.82,0,0,1-1.07-.56A2.92,2.92,0,0,0,28.51,32.58Zm-4.24-3.17c1.2,1,2.46,1.88,3.71,2.78-.63,1.3-1.9,2.22-3.25,1.41a2.4,2.4,0,0,1-1.12-2C23.57,30.93,23.62,29.76,24.27,29.41ZM39.55,25.2a28.2,28.2,0,0,0-5.66.2l-12.45.65a.34.34,0,0,0-.21.56A26.13,26.13,0,0,0,24,29.15a2,2,0,0,0-.88,1.7,3.73,3.73,0,0,0,.32,2.26,4.09,4.09,0,0,0,2.79,2.6,3.18,3.18,0,0,0,3.51-2.26c1.46,1.09,2.91,2.25,4.42,3.25a18.42,18.42,0,0,0,2.23,1c-1,.3-1,1.15-1.58,2.23-.93,1.72-1.76,1.73-3.14,2.47a4.21,4.21,0,0,0-1.33,1.2c-.37.46-.63,1.22-1.09,1.57a5.43,5.43,0,0,1-3.85.62,6.84,6.84,0,0,0-2.43,0c-1.64.4-2.29,1.38-4.26.26a8.71,8.71,0,0,0-1.95-1.19c-.83-.25-1.81,0-2.6-.39C13,43.93,13,43.12,12.19,42.52c-1.31-.92-2.49-1.31-3.54-2.64A12.16,12.16,0,0,1,6.2,35.2a15,15,0,0,0-.75-3c-.64-1.3-1.36-1.92-1.61-3.5-.57-3.56.19-7.15,1-10.58.35.11.47-.47.14-.62s2-3.8,2.31-4.28a7.83,7.83,0,0,1,2.63-2.44,4.15,4.15,0,0,0,1.05-1c.22-.3.36-.66.56-1,.68-1.18,1-1.19,2.22-1.6,2.1-.73,3.83-2.74,6.1-2.92,1-.09,2.2.4,3.29.35a9.9,9.9,0,0,1,5,1.1A20.1,20.1,0,0,1,31,7.26c1.09.75,1.22,1.63,1.8,2.74a14.53,14.53,0,0,0,1.34,2,8.65,8.65,0,0,1,1.36,4c0,.06,0,.11.05.16a4.07,4.07,0,0,0-1-.94,3.58,3.58,0,0,0-1.06-.87c-1.3-.68-3.31-.11-3.28,1.75a.25.25,0,0,0,0,.13c-.54.87.09,2.39.91,3l.21.13a2.77,2.77,0,0,0,3.15.71,2.34,2.34,0,0,0,1.54-2.54.24.24,0,0,1,0-.08c.85,1.43,2.23,2.43,2.41,4.49.11,1.36.1,2.52,1.22,3.31Zm-8.89-8.76a1.26,1.26,0,0,1,.44-.59c.09-.07,0-.23-.07-.19a1.34,1.34,0,0,0-.32.13c.72-2.54,4.75-.62,3.93,1.95a2,2,0,0,1-2.3,1.41,2.57,2.57,0,0,1-.87-.41A3.54,3.54,0,0,1,30.66,16.44Zm4.25,2a2.81,2.81,0,0,0,0-2.77,2.3,2.3,0,0,1,.79,1.26,2.2,2.2,0,0,1-1.8,2.77,2.76,2.76,0,0,1-.64,0A2.41,2.41,0,0,0,34.91,18.42Zm4.82,6.81a.07.07,0,0,0,0-.1c-1.23-1.91-.22-4.51-1.62-6.37-.42-.55-1.14-.92-1.51-1.5-.57-.88-.58-2.17-.88-3.13a7.38,7.38,0,0,0-.91-2A17.35,17.35,0,0,1,33.31,10c-.28-.59-.21-1.62-.5-2.12A3.55,3.55,0,0,0,31.27,6.7C29.16,5.47,26.81,4,24.36,3.91c-2.29-.07-4.84-.6-7,.51-.61.31-1.13.76-1.71,1.12a14,14,0,0,1-2.89,1,2.52,2.52,0,0,0-1.36,1.07,8.12,8.12,0,0,1-2.3,2.69c-.59.39-.89.41-1.38,1.05A33.32,33.32,0,0,0,5,15.86c-.44.8-.75,1.06-.63,2a.28.28,0,0,0,.15.2A20.49,20.49,0,0,0,3,26.77a13.16,13.16,0,0,0,.54,4c.1.27.36.45.49.7A10.91,10.91,0,0,1,5.45,35,14.46,14.46,0,0,0,9,41.36c.82.94,1.39,1,2.29,1.56S12.7,44.55,13.66,45c1.29.6,2.68.21,3.94,1,.72.46,1.27,1.22,2.13,1.39A3.69,3.69,0,0,0,21.85,47c1.82-.72,3.15-.31,5-.3,2.51,0,2.7-1.64,4.38-3.15.85-.78,2.14-.71,3-1.38s1.51-3.69,2.62-3.81a.35.35,0,0,0,.3-.26c1.18.59,2.12,1.35,1.74,2.45a.22.22,0,0,0,.06.23C34.35,48.84,25.36,51,17.09,49.25S3.31,41.66,1.42,32.78s0-19.24,6.3-25.45c6-5.93,15.12-8,22.75-5,8.84,3.5,13.88,12.36,14.28,22.37a.35.35,0,0,0,0,.18C42.85,26.14,41.69,25.55,39.73,25.23Z"/><path class="cls-1" d="M33.2,17.53a.16.16,0,0,0-.32,0,.68.68,0,0,1-.38.56.4.4,0,0,1-.32,0c-.16-.08,0-.39.08-.49a.09.09,0,0,0-.11-.13.82.82,0,0,0-.32.76c.08.2.37.27.55.27A.87.87,0,0,0,33.2,17.53Z"/><path class="cls-1" d="M32.32,16.4c-.19-.43-.87-.79-1.16-.27-.18.32,0,.9.38.85.13,0,.13-.21,0-.21s-.23-.34-.1-.47.52.06.65.24A.13.13,0,0,0,32.32,16.4Z"/><path class="cls-1" d="M33.73,15.68c-.13-.17-.34,0-.31.2s.07.45-.09.58a.18.18,0,1,1-.22-.28A.13.13,0,0,0,33,16a.54.54,0,0,0,.26,1C33.84,17,34.07,16.16,33.73,15.68Z"/><path class="cls-1" d="M30.41,10.48A3,3,0,0,1,29,9.82a.21.21,0,0,0-.32,0,4.75,4.75,0,0,0-.93,1.71.22.22,0,0,0,.31.26c.26.26.54.51.78.8a.2.2,0,0,0,.33-.05A5.42,5.42,0,0,1,30.47,11C30.61,10.84,30.64,10.53,30.41,10.48ZM29,12.08c-.23-.18-.46-.38-.69-.57a7.42,7.42,0,0,1,.65-1.17,3,3,0,0,0,.93.53A5.64,5.64,0,0,0,29,12.08Z"/><path class="cls-1" d="M25.43,8.33a14.74,14.74,0,0,1-.25-1.48c0-.18-.12-.34-.31-.34a3.48,3.48,0,0,0-.85.06.27.27,0,0,0-.16.33c-.11.95-.26,2.91.95,3.06.34,0,.85-.14.88-.58A3.94,3.94,0,0,0,25.43,8.33Zm-.53,1c-.68.13-.73-1.47-.76-2.23a1.88,1.88,0,0,0,.47,0c0,.32.09.64.15.95s.11.52.18.78S25.15,9.3,24.9,9.35Z"/><path class="cls-1" d="M19.53,12.26a2.6,2.6,0,0,1-1.16-.55.2.2,0,0,0-.34,0c-.41.74-.85,1.45-1.29,2.16,0,0,0,0,0,0a.16.16,0,0,0-.08.25l1.06,1.37a.18.18,0,0,0,.29-.05,10.25,10.25,0,0,1,1.63-2.86C19.73,12.53,19.7,12.29,19.53,12.26ZM17.76,15l-.71-.81.06-.06a20.12,20.12,0,0,0,1.17-1.95,2.84,2.84,0,0,0,.79.41A8.28,8.28,0,0,0,17.76,15Z"/><path class="cls-1" d="M14.14,12.94a22.68,22.68,0,0,1-1.31-2.88c-.06-.14-.24-.25-.36-.1-.27.36-.86.85-.75,1.39a3.66,3.66,0,0,0,.47,1c.25.5.51,1,.77,1.49.08.16.3,0,.23-.15l0,0a3.14,3.14,0,0,0,.89-.31A.28.28,0,0,0,14.14,12.94Zm-1.76-1.09c-.11-.24-.3-.49-.23-.78a1.81,1.81,0,0,1,.41-.55,23.64,23.64,0,0,0,1.06,2.42,3.5,3.5,0,0,1-.6.17l-.06,0Z"/><path class="cls-1" d="M9.94,23.47a.21.21,0,0,0-.19-.21L8,23.21a7,7,0,0,0-1.65,0c-.68.16-.51,1-.39,1.6a.24.24,0,0,0,.47-.07c0-.29-.18-.78.06-1s.91,0,1.1,0l2,0c0,.34,0,.68,0,1a10.56,10.56,0,0,0-3-.12c-.16,0-.17.28,0,.28a15.28,15.28,0,0,1,3.16.27.2.2,0,0,0,.24-.2C9.94,24.44,9.94,24,9.94,23.47Z"/><path class="cls-1" d="M17.38,25.32c-.12-.56-.24-1.12-.37-1.67a2.64,2.64,0,0,0-.47-1.13c-.34-.39-1.11-.58-1.36,0a.23.23,0,0,0,0,.11.12.12,0,0,0,0,.12c.08.54.18,1.08.29,1.62a2.39,2.39,0,0,0,.32,1.05c.37.45,1,.33,1.49.2A.24.24,0,0,0,17.38,25.32Zm-1-.06c-.4-.05-.52-.42-.62-.79-.14-.55-.27-1.1-.43-1.65h.09c.65-.41,1,.28,1.1.89s.23,1,.35,1.51A1.37,1.37,0,0,1,16.4,25.26Z"/><path class="cls-1" d="M11.53,35.17a.23.23,0,0,0-.28,0,1.88,1.88,0,0,0-.7.67.16.16,0,0,0-.15,0,.14.14,0,0,0-.1.14c0,.33.23.65.38.92a11.39,11.39,0,0,0,.72,1.28,1.21,1.21,0,0,0,1.35.63C14.41,38.21,12,35.74,11.53,35.17Zm.73,3.15c-.43-.13-.68-.68-.9-1a9.64,9.64,0,0,0-.69-1.06h.05a4.9,4.9,0,0,0,.6-.51l.84,1.08a4.83,4.83,0,0,1,.54.72C12.89,37.89,12.74,38.47,12.26,38.32Z"/><path class="cls-1" d="M19.13,29.24c-.16,0-.28.08-.29.25a10.3,10.3,0,0,1-.68,2.86.18.18,0,0,0,0,.29,9.73,9.73,0,0,0,1.76.9c.12.05.25-.08.25-.21a7.43,7.43,0,0,1,.25-1.94c.12-.38.48-.89.45-1.32C20.81,29.35,19.56,29.35,19.13,29.24ZM20,31a5.64,5.64,0,0,0-.29,2,7.07,7.07,0,0,1-1.13-.5,9.22,9.22,0,0,0,.66-2.75,2.18,2.18,0,0,1,.88.24C20.46,30.25,20.15,30.65,20,31Z"/><path class="cls-1" d="M28.73,37.83a11.78,11.78,0,0,1-2.37-.12.24.24,0,0,0-.29.18,6.73,6.73,0,0,0-.25,1.49.12.12,0,0,0,0,.13v.07a.21.21,0,0,0,.35.18,11.65,11.65,0,0,0,2,.94.23.23,0,0,0,.27-.17c.18-.79.36-1.59.53-2.38A.25.25,0,0,0,28.73,37.83Zm-.68,2.34a12.94,12.94,0,0,1-1.78-.71,8.66,8.66,0,0,1,.2-1.24,12,12,0,0,0,2,.11C28.31,38.94,28.18,39.56,28.05,40.17Z"/><path class="cls-1" d="M32.58,37.35a.27.27,0,0,0-.25-.27,9.76,9.76,0,0,1-1.4-.24.24.24,0,0,0-.28.31c.15.72.27,1.45.38,2.18h0c-.29.12-.19.61.1.54a2,2,0,0,1,0,.24.14.14,0,0,0,.28,0l0-.28a1.46,1.46,0,0,1,.85,0,.26.26,0,0,0,.32-.27C32.58,38.83,32.59,38.09,32.58,37.35Zm-1.24,1.89c-.08-.61-.15-1.22-.2-1.83a7.42,7.42,0,0,0,.94.18c0,.54,0,1.09,0,1.64A1.64,1.64,0,0,0,31.34,39.24Z"/></g></g></svg>