<svg xmlns="http://www.w3.org/2000/svg" viewBox="0 0 104.74 76.69"><defs><style>.cls-1{fill:#191102;}</style></defs><title>icone-saladas-sidenavldpi</title><g id="Camada_2" data-name="Camada 2"><g id="Camada_1-2" data-name="Camada 1"><path class="cls-1" d="M92.43,47.78c1.72-5.84,1.62-10.62-2.37-12.06,2.59-5.13,6-9.68,9.33-14.36,1.93-2.72,6.81-7.8,4.92-11.6-1.21-2.44-4.46-2.47-6.65-1.48-4,1.82-5.45,6.37-6.07,10.44a21.36,21.36,0,0,0-1-5.27C90,11.53,86.76,7.14,84.44,8.2,81,8.56,82.23,14.28,83,16.44c.9,2.69,2.29,5.18,3.18,7.87A33.93,33.93,0,0,1,87.48,35.2a.09.09,0,0,0,0,0c-7.69-.18-10.9,8.9-12.22,14.94-1.9,8.63-1.62,18,1.66,26.23a.25.25,0,0,0,.25.17.42.42,0,0,0,.65-.11c.72-1.18,2.63-4.17,4.87-8a.37.37,0,0,0,.31-.53,140.7,140.7,0,0,0,6.62-12.72.36.36,0,0,0,.12-.27,63.19,63.19,0,0,0,2.41-6.25.42.42,0,0,0,.5-.6C92.59,48,92.51,47.89,92.43,47.78Zm-.56-28.29C93,15.6,94,10.9,98.08,9.11c2-.85,2.36-.66,4,.79a7.25,7.25,0,0,1,.64,4.9v.07a33.39,33.39,0,0,1-2.61,4.23c-3.23,4.78-6.86,9.26-9.6,14.33,2.74-6.41,6.11-12.44,9-18.77a.15.15,0,0,0-.25-.15c-4.54,6.17-7.62,13.67-10.36,20.77a.23.23,0,0,0,0,.11l-.09,0a.19.19,0,0,0,0-.09,46.15,46.15,0,0,0,2.82-15.66A.18.18,0,0,0,91.87,19.49ZM86.62,23c-1-2.54-6-11.4-2.7-13.83,2.6-1.74,5.35,2.91,6,4.93a21.72,21.72,0,0,1,.72,6.62,38.51,38.51,0,0,1-.72,6.55,20.39,20.39,0,0,0-3.7-12.69.17.17,0,0,0-.29.17A23.39,23.39,0,0,1,88.25,33,24.94,24.94,0,0,0,86.62,23ZM82.2,44c0,.22.31.23.37,0,.22-.61,5.2,1.34,5.31,1.39A9.56,9.56,0,0,1,91.54,48,41.78,41.78,0,0,1,89.2,54a8,8,0,0,0-5.57-2.27.17.17,0,0,0,0,.34,10.56,10.56,0,0,1,3.3,1.12,15.79,15.79,0,0,1,1.94,1.59c-.24.5-.49,1-.74,1.5-.8,1.58-1.62,3.14-2.45,4.7-1.53-2.46-5.24-3.07-7.83-3.4-.24,0-.35.33-.1.39a19.6,19.6,0,0,1,4.74,1.41,9.59,9.59,0,0,1,2.77,2.37q-1.39,2.59-2.85,5.16a6.14,6.14,0,0,0-4.89-2.38c-.32,0-.3.46,0,.48A5.83,5.83,0,0,1,82,67.61q-2.33,4.08-4.73,8.1a53.3,53.3,0,0,1-1.79-20.94c.84-6.5,2.85-16.57,10.37-18.34,4.08-1,5.87,1.47,6.37,4.5a7.57,7.57,0,0,0-4.75-2.34c-.21,0-.25.33,0,.37A7.51,7.51,0,0,1,92.2,42a.39.39,0,0,0,.14.12,15,15,0,0,1-.22,3.37c-.09.5-.21,1-.33,1.49a11.28,11.28,0,0,0-3.88-2.39c-1.39-.57-4-1.69-5.54-1.06a.23.23,0,0,0-.15.21C82.21,43.83,82.21,43.9,82.2,44Z"/><path class="cls-1" d="M39.09,57.47c-3.49-1.44-7-2.76-10.58-4,0,0,0-.07,0-.1a.25.25,0,0,0-.49-.08l-1-.37c-.21-.07-.37.17-.32.35a.38.38,0,0,0-.52.22c-1.27,3.15,1.43,7.25,4.42,8.37a7,7,0,0,0,8.36-3.26.39.39,0,0,0,0-.23C39.42,58.4,39.57,57.67,39.09,57.47ZM33,56a.51.51,0,0,0,0,.1c-.09.59-.17,1.33.37,1.75a.83.83,0,0,0,1.26-.2c.11-.21-.13-.5-.35-.35s-.49,0-.6-.21a1.47,1.47,0,0,1-.06-.86l2.6,1c-1.71,4.28-6.58.09-7.55-3.11Q30.85,55.15,33,56Zm-1.93,4.73c-2.59-.94-4.75-4.31-4.23-7.08a.39.39,0,0,0,0-.27l1.1.47c0,2.5,2,4.74,4.25,5.72,1.58.69,5,.19,4.81-2,.44.17.88.36,1.32.52C36.34,60.11,34.08,61.84,31.11,60.77Z"/><path class="cls-1" d="M32,56.36a.45.45,0,0,1-.48-.37c-.07-.37-.63-.27-.64.08a.9.9,0,0,0,1.35.83C32.54,56.73,32.31,56.31,32,56.36Z"/><path class="cls-1" d="M14.61,54a.25.25,0,0,0-.37.28c.08.28.25.44.22.76s.35.28.42.06A.91.91,0,0,0,14.61,54Z"/><path class="cls-1" d="M39.89,42c-.09.2-.27.49-.55.41a.48.48,0,0,1-.24-.64c.08-.22-.25-.35-.37-.16A.94.94,0,0,0,39.14,43a1,1,0,0,0,1.31-.82C40.46,41.89,40,41.75,39.89,42Z"/><path class="cls-1" d="M39.37,43.71a1.06,1.06,0,0,0-.44,1.51.19.19,0,0,0,.32-.19.58.58,0,0,1,.46-.82c.32,0,.44.25.64.44a.24.24,0,0,0,.41-.17C40.82,43.82,39.89,43.49,39.37,43.71Z"/><path class="cls-1" d="M72.74,64.55a.68.68,0,0,0-.83-.6L71.5,64a4.47,4.47,0,0,0-1.9-3.51,2.43,2.43,0,0,0,.12-3.08,2.47,2.47,0,0,0-1.19-.82c-1.33-.46-1.26.73-1-.91.65-3.43-2-5.25-4.83-3.56a9.13,9.13,0,0,0-4.52-5.21.56.56,0,0,0-.76.19c-.18.37-.34.74-.5,1.1a2.31,2.31,0,0,0-2-1,2,2,0,0,0-1,.35,4.86,4.86,0,0,0-1-4.05,3.42,3.42,0,0,0-4.58-.5c-.3-2.26-3.06-3.59-4.71-2,.1-.81.2-1.63.29-2.44.16-1.41.07-2.44-1.56-2.29-3.31.29-7.76,3.46-8.21,7a4.62,4.62,0,0,0-.29-.7,3.17,3.17,0,0,0-2.35-1.64,3,3,0,0,0-3.09,1.75,4.72,4.72,0,0,0-5.76-1.78C20.16,42.06,20,44.44,21,46.49a3.18,3.18,0,0,0-3.82,3.11,4.51,4.51,0,0,0-1.11-.81.26.26,0,0,0-.36.08.45.45,0,0,0-.57.26,29.35,29.35,0,0,1-1.31,3.37,7.9,7.9,0,0,1-.61.9c-.63-2-2.51-3.2-4.47-1.62-1.37,1.1-2.55,3.3-2.12,5.07A2.06,2.06,0,0,0,4.74,58,2.15,2.15,0,0,0,6.6,61c.36,0,.38-.49.08-.6-2.07-.75-.4-3.3.93-2,.61.5,1.48-.34.88-.88-1.16-1-.51-2.63.21-3.7s.61-1,1.93-.86,1.21.09,1.58,1.19a.53.53,0,0,0,.14.23,14.25,14.25,0,0,1-1.07,1,.29.29,0,0,0-.11.14,1.67,1.67,0,0,0-1,.31.33.33,0,0,0,.33.56c1-.16,1.42.15,1.36.92,0,.54.62.69,1,.4a2.4,2.4,0,0,1,2.27-.35c.74.26,1,.84,1.56,1.31a.51.51,0,0,0,.85-.33.55.55,0,0,0,.35-.15c2.09-2,1.54-6-.34-8.21a.29.29,0,0,0,.31-.24c.34-2,2.38-3.21,4.16-1.7a.51.51,0,0,0,.72-.72c-1.73-2.08-1.66-5.6,1.68-5.67,2,0,3,1.31,3.89,2.86a.45.45,0,0,0,.81-.34,4.42,4.42,0,0,0-.15-.48c.48-1.2,1.55-2.15,2.94-1.46A2.22,2.22,0,0,1,33,43.79c.15.59,0,1.17.41,1.67a.33.33,0,0,0,.56.27c1.38-1.46,3.62-.41,3.06,1.61a.61.61,0,0,0,1,.58c1.93-1.62,3.73-.17,4.25,1.86.16.64,1,.44,1.07-.14a3,3,0,0,0-.75-2.44.44.44,0,0,0,.23-.33c.23-1.54.44-3.08.63-4.63a2.1,2.1,0,0,1,1.85-1A2,2,0,0,1,47.07,44a.62.62,0,0,0,1,.75c1.36-1.33,3.48-1.77,4.36.38a4.22,4.22,0,0,1-.6,4.06c-.37.59.51,1.31,1,.76a4,4,0,0,0,.24-.33.33.33,0,0,0,.56-.2,1.43,1.43,0,0,1,1.55-1.34c.72.11.93.67,1.35,1.16a40.06,40.06,0,0,0-2.22,6.34.4.4,0,0,0,.07.35,2.93,2.93,0,0,0-.51.24,1.71,1.71,0,0,0,.44,3.14c.24.05.5-.26.26-.46s-.47-.56-.24-1q-.26-2.2,1.86.61a.48.48,0,0,0,.82.34,4.2,4.2,0,0,1,3-1.58c1.53,0,2.58,1.54,1.41,2.81a.54.54,0,0,0,.65.84c1.58-.82,1.45-3.09.15-4.12-.09-.07-.19-.11-.28-.17s0,0,0-.05a5,5,0,0,0,1-3.63c3.08-.12,4.25.84,3.49,2.88a4.62,4.62,0,0,0-.32,1,.61.61,0,0,0,.15.59,5.37,5.37,0,0,1,.55.4l.16,0q1.69-.31,1.29,2.43a.64.64,0,0,0,.13,1,4,4,0,0,1,2,2.89.57.57,0,0,0-.31.26,123.76,123.76,0,0,1-34.6,1.31C23.78,64.52,11.92,63.38.88,59.43a.26.26,0,0,0-.26,0A.4.4,0,0,0,.05,60c2.87,5.51,7,9.13,13.15,10.46,7.41,1.62,15.2,2.21,22.75,2.79,11.1.85,30.58,4.27,37.14-7.89A.52.52,0,0,0,72.74,64.55Zm-57-8.23a4.19,4.19,0,0,0-.46-.16,3.53,3.53,0,0,0-2.56.28,1.83,1.83,0,0,0-.56-.58,10.11,10.11,0,0,0,3.53-4.18,9.85,9.85,0,0,1,.47,2.13A6.47,6.47,0,0,1,15.76,56.32Zm2-2.88a8.62,8.62,0,0,1-.67,3.84,3.24,3.24,0,0,0-.9-.74c.8-1.72,1.12-4.23-.24-5.67h0a5.72,5.72,0,0,0,.19-1.07A7.68,7.68,0,0,1,17.8,53.44ZM42.68,39.26c-.1.75-.19,1.49-.29,2.24-.22,1.67-.46,3.34-.64,5a4.16,4.16,0,0,0-3.52-.1,2.74,2.74,0,0,0-2-2.17c.05-3.31,4.06-4.11,6.39-5.22a.25.25,0,0,0,.13-.14C42.72,39,42.7,39.14,42.68,39.26Zm.09-.45a.36.36,0,0,0-.32-.4c-2.76-.12-7.05,2.7-6.76,5.77a2.56,2.56,0,0,0-.94.14s0,0,0,0a6.58,6.58,0,0,1,3-4.63c1-.76,2.94-2.16,4.28-2.11C43.06,37.56,42.91,38.15,42.77,38.81ZM56.92,57.45a2.28,2.28,0,0,0-1.86-1.58l0,0c.8-2.09,1.59-4.16,2.47-6.2a7.23,7.23,0,0,1,1.85,3.06,20.62,20.62,0,0,1,.21,3.41A5.29,5.29,0,0,0,56.92,57.45Zm4.3-1.36a.31.31,0,0,0,0,.12,3.12,3.12,0,0,0-.74-.14c1.18-2.27-.65-5.7-2.6-7.07l.36-.81C60.94,49.86,63.09,52.86,61.22,56.09ZM36,71.7c-6.46-.49-12.92-1.2-19.33-2.19-6.78-1.06-11.22-3.7-15.22-9,4.58,2.57,9.82,3.35,15,4.1,6.05.89,12.11,1.76,18.19,2.37,12.26,1.23,25,1.59,37.05-1.53C63.3,75.37,47.5,72.59,36,71.7Z"/><path class="cls-1" d="M58.66,53a1.44,1.44,0,0,1-.9-.31c-.25-.19-.53.21-.33.42a1.92,1.92,0,0,0,1.23.58C59.09,53.78,59.11,53.05,58.66,53Z"/><path class="cls-1" d="M58.32,54.81a.87.87,0,0,1-1,0c-.26-.18-.59.24-.34.44a1.17,1.17,0,0,0,1.64,0A.27.27,0,0,0,58.32,54.81Z"/><path class="cls-1" d="M45.8,57.5a2,2,0,0,0-1.53,2c-.94-.55-2.06-.84-2.83.14a1.23,1.23,0,0,0,1.16,2c.29-.05.22-.5-.06-.5.07-.43.15-.85.23-1.28a1.2,1.2,0,0,1,.76.2,4.72,4.72,0,0,1,1.15.84c.36.33,1-.1.71-.55a1.28,1.28,0,0,1,.19-1.69c1-.81,2.05.38,1.78,1.44a.41.41,0,0,0,.79.22A2.15,2.15,0,0,0,45.8,57.5Z"/><path class="cls-1" d="M33,49a2.77,2.77,0,0,0-3.3.56c-.63-.86-1.43-1.75-2.61-1.38a1.3,1.3,0,0,0-.53,2.2c.3.28.74-.16.45-.45l.82-1a1.71,1.71,0,0,1,.92.72,4,4,0,0,1,.49.91.47.47,0,0,0,.74.09,2.07,2.07,0,0,1,2.17-.91c1,.33,1.07,1.16.9,2.08-.07.4.43.81.76.44A2.22,2.22,0,0,0,33,49Z"/><path class="cls-1" d="M62.43,7.27c-2.12-.75-3.54,1.8-4.45,4.09-.31-4.64-1.31-12.57-5-11.2-1.63.6-1.84,3.18-1.81,4.6A15.87,15.87,0,0,0,52,9.05c-.32-.45-.64-.9-1-1.33-1-1.27-3.11-4.36-5.19-3.26C42.37,6.28,46,11,49.06,14c-3.48-1.41-8.36-2.8-8.73.49-.17,1.53,1.52,2.3,2.65,2.85a13,13,0,0,0,6.21,1.32,8.89,8.89,0,0,0-2,8.32c2.47,8.53,13.15,6.72,17.45,12.9a8.62,8.62,0,0,0,.53,1.05.52.52,0,0,0,.18.18s.05.09.07.13a.35.35,0,0,0,.66-.17.49.49,0,0,0,.13-.65c-3.81-7.15,5.38-13.67,2.42-20.94A9.17,9.17,0,0,0,61.73,14C63,12.09,65.1,8.22,62.43,7.27Zm-9-5.2c.75-.76,1.24-.68,1.45.24a5.53,5.53,0,0,1,.92,2.32c.22.83.36,1.68.5,2.53A53.44,53.44,0,0,1,57,14a13.88,13.88,0,0,0-2.09.61v0a.22.22,0,0,0,.08-.3C53.84,12,49.85,3.33,53.45,2.07ZM46.57,9.14c-.13-.27-.26-.54-.4-.81q1-3.48,2.2-1.94c1.21.67,2.36,2.71,3.09,3.83a14.87,14.87,0,0,1,2.39,4.57l0,.07a.47.47,0,0,0,0,.2c-.42.21-.82.44-1.22.68a.48.48,0,0,0-.19-.26A18.46,18.46,0,0,1,48.49,12,10.56,10.56,0,0,1,46.57,9.14Zm-1,8.19a13.39,13.39,0,0,1-2.49-1.08c-.69-.38-3.34-1.84.14-2.68,1.11-.26,3.11.69,4.16,1a43,43,0,0,1,4.36,1.73A14,14,0,0,0,49.82,18,15.93,15.93,0,0,1,45.54,17.33ZM66.62,27.87C65.37,31,63.73,34.24,64,37.48c-2.4-2.35-6.2-3.09-9.44-4.48-3.59-1.54-6.79-4.79-6.5-9,.25-3.62,3.51-6.5,6.58-7.94C58,14.49,62,14.41,65,16.78,68.73,19.71,68.19,24,66.62,27.87Zm-4.3-17.82a4.48,4.48,0,0,1-.57,1.54,11.07,11.07,0,0,1-1.34,2.19,12.51,12.51,0,0,0-2.12,0c.59-1.72,1.17-3.65,3-4.12Q63,8.59,62.32,10.05Z"/></g></g></svg>