<svg width="49" height="46" viewBox="0 0 49 46" fill="none" xmlns="http://www.w3.org/2000/svg">
<path d="M48.3333 36.25C48.3333 38.8138 47.3149 41.2725 45.502 43.0854C43.6892 44.8982 41.2304 45.9167 38.6667 45.9167H31.4167C28.8529 45.9167 26.3942 44.8982 24.5813 43.0854C22.7684 41.2725 21.75 38.8138 21.75 36.25V31.4167H38.1592L44.8292 19.8892L48.5992 22.0642L43.1858 31.4167H48.3333V36.25ZM16.9167 45.9167H0C0 38.6667 -1.78814e-07 31.4167 0.7975 23.7558C1.45 17.6417 2.61 11.2617 3.86667 4.83333H2.41667V0H4.83333H12.0833H14.5V4.83333H13.05C14.3067 11.2617 15.4667 17.6417 16.1192 23.7558C16.9167 31.4167 16.9167 38.6667 16.9167 45.9167Z" fill="#F58F29"/>
</svg>
