<svg xmlns="http://www.w3.org/2000/svg" viewBox="0 0 103.41 76.75"><defs><style>.cls-1{fill:#191102;}</style></defs><title>icone-sucos-sidenavldpi</title><g id="Camada_2" data-name="Camada 2"><g id="Camada_1-2" data-name="Camada 1"><path class="cls-1" d="M101.27,28.15c1.45-.33,2.29-2.26,2.12-3.64-.26-2-2-3.15-3.92-3.4a3.5,3.5,0,0,0-2.32-5.39c2.21-3.78,4.26-7.7,6.09-11.57a.36.36,0,0,0-.1-.47c0-1.13-1.56-1.89-2.63-1.61a.15.15,0,0,0-.09.06h-.06a.39.39,0,0,0-.38.19,119.81,119.81,0,0,0-6,10.74,4.08,4.08,0,0,0-4.89-3,4.89,4.89,0,0,0-.73-4.67,3.36,3.36,0,0,0-3.91-.9C84.83,1.88,81.33-.75,78.86.2c-2.66,1-3.24,4.52-1.78,6.72a4.32,4.32,0,0,0-.66-.11,2.9,2.9,0,0,0-2.18.73,2.49,2.49,0,0,0-.56,2.77,5.17,5.17,0,0,0-5.89,2.1A4.48,4.48,0,0,0,68.38,18a3.11,3.11,0,0,0-3.17,3,2.25,2.25,0,0,0,1.86,2.07c-1.85,1.68-3.25,4.6-2.12,6.78a2.92,2.92,0,0,0,3.22,1.54,2.16,2.16,0,0,0,.74-.29,164.7,164.7,0,0,0-.52,18.13c.07,5.07.82,11.71,6.61,13.3a.33.33,0,0,0,.17,0c-.19,2.28-.65,4.44-1,6.66-2.38,0-7.89.52-6.57,3.46.67,1.48,3,1.84,4.4,2.13a97.17,97.17,0,0,0,9.71,1.71c1.74.86,3.17-1.15,2.82-2.81a4.73,4.73,0,0,0-1.95-2.67,11.64,11.64,0,0,0-3.19-1.92c.08-.81.13-1.64.24-2.42.15-1.1.3-2.21.49-3.31,5.77,2.71,9.33-4.22,10.77-8.76a191.16,191.16,0,0,0,5.86-23.73,2.63,2.63,0,0,0,4,1.53C102,31.61,102.53,29.2,101.27,28.15Zm-.53-25.54a5.77,5.77,0,0,1,1.08.23c.34.15.75.57.62,1a2.65,2.65,0,0,1-1.7-1.19Zm-.32.59a2.62,2.62,0,0,0,1.64,1.31A142,142,0,0,0,92.35,22.3a2,2,0,0,0-.54.21,1.88,1.88,0,0,0-.57.55,2.47,2.47,0,0,0-.5-1,5.6,5.6,0,0,1,.17-.54A3,3,0,0,0,91.1,21s0,0,0-.05C94,14.92,97,9,100.42,3.2ZM92.34,45.38C90.9,50.86,88.65,65.5,80.23,62.62l0-.14a.14.14,0,0,0-.21-.14c-.08.06-.13.12-.2.18a.37.37,0,0,0-.37.44,7.86,7.86,0,0,0-.83,2.87,17.2,17.2,0,0,0-.55,5.7.42.42,0,0,0,.83,0,10.94,10.94,0,0,0,.31-1.45c.8.73,1.93,1.22,2.76,1.87a3.58,3.58,0,0,1,1.44,2,1.61,1.61,0,0,1-1,2,.5.5,0,0,0-.29-.21c-2.91-.81-6-1.16-9-1.71a9.42,9.42,0,0,1-2.48-.57,1.2,1.2,0,0,1-.92-.28.11.11,0,0,0,.12-.17,2.19,2.19,0,0,1,0-1.72,1.74,1.74,0,0,1,.31-.5A9.47,9.47,0,0,1,74,70c0,.28-.09.55-.13.83a.45.45,0,0,0,.85.28,18.51,18.51,0,0,0,1.11-9,.33.33,0,0,0-.34-.28.41.41,0,0,0-.19-.15c-6.92-3.08-6-11.58-5.89-17.91s.81-12.36,1.06-18.54A2.61,2.61,0,0,0,72,27a2.19,2.19,0,0,0,2.54-1.28,1.81,1.81,0,0,0,1.72,1.42,1.84,1.84,0,0,0,1.2-.45c-.12,2.1.82,4.44,3.09,4.66,2.42.24,3.9-2.72,3.83-5a2.31,2.31,0,0,0,2,1,2.62,2.62,0,0,0,1.93-1.06,3.67,3.67,0,0,0,3.07,2.9c1.79.12,3.85-1.64,3.66-3.48a2,2,0,0,0,1.39.66h0C95.29,32.77,94,39.11,92.34,45.38Zm7.91-13.91A2.11,2.11,0,0,1,97,30.25a.14.14,0,0,0-.1-.1c.23-1.34.46-2.67.67-4A1.53,1.53,0,0,0,98.45,25a.45.45,0,0,0-.77-.37,7.48,7.48,0,0,1-.63.63.45.45,0,0,0-.37.17l-.15,0a1.41,1.41,0,0,1-1.34-.8.32.32,0,0,0-.61.06.31.31,0,0,0-.41.24,5,5,0,0,1-.67,2.38,2.52,2.52,0,0,1-2.07.95,2.44,2.44,0,0,1-1.91-1.23A6.25,6.25,0,0,1,89,25.15a.23.23,0,0,0-.38-.07s0,.07-.05.1a.68.68,0,0,0,0-.14c-.07-.29-.44-.23-.56,0-.45.69-.73,1.48-1.69,1.56a1.91,1.91,0,0,1-1.86-1.29.24.24,0,0,0-.27-.15.56.56,0,0,1,0-.12.29.29,0,0,0-.57.12,8,8,0,0,1-.45,3.32c-.45,1-1.44,2.32-2.75,2-2.11-.5-2.48-3.23-2.08-5,.44.17,1,.3,1.31-.1a.35.35,0,0,0,0-.45c-.29-.31-.84-.2-1.22-.34s-.69-.55-1.09-.77-.83.27-.38.48h0c.11.18.34.5.36.53a3,3,0,0,0,.33.28,1.91,1.91,0,0,1-1.17,1.23,1.12,1.12,0,0,1-1.25-1.36A.26.26,0,0,0,75,24.6a.25.25,0,0,0-.42-.1C74,25.27,73.2,27,72,26.1a3.16,3.16,0,0,1-1-2.46A1.43,1.43,0,0,0,72.19,23a.34.34,0,0,0-.41-.47,3.15,3.15,0,0,1-1.19.32,1.56,1.56,0,0,1-.55-.15,4.54,4.54,0,0,1-.43-.19.24.24,0,0,0-.35.32c0-.05,0,0,0,.07a.44.44,0,0,0,.06.16.84.84,0,0,0,.33.29,2.22,2.22,0,0,0,.41.2c-.46,2.16-.8,4.38-1,6.62-.55,1.38-3.12-.13-3.42-1.08a4.33,4.33,0,0,1,.39-3,11.68,11.68,0,0,1,2.76-3.45c.19-.2-.06-.6-.32-.47a5.81,5.81,0,0,0-.66.4,1.54,1.54,0,0,1-1.44-2.23c.61-1.38,2.22-1.48,3.54-1.45.42,0,.36-.57,0-.68l-.23-.06a3.8,3.8,0,0,1-1-5.24C70,10.84,72.16,11,74.31,11.28a.34.34,0,0,0,.25-.09.29.29,0,0,0,.22-.44,1.85,1.85,0,0,1,.29-2.67,2.19,2.19,0,0,1,1.66-.28,6.68,6.68,0,0,1,1,.37,3.08,3.08,0,0,0-.07,1c0,.36.53.3.55-.05a2.79,2.79,0,0,1,.51-1.55,10,10,0,0,1,1-1c.16-.17,0-.52-.24-.47A2,2,0,0,0,78.2,7c-.86-1.76-1.65-3.75.13-5.31,2.25-2,5.58.69,5.37,3.3a.34.34,0,0,0,.26.33.33.33,0,0,0,.43.12c3.58-1.72,4.4,2.8,3.52,5.15-.13.36.17.82.59.66a3.69,3.69,0,0,1,5.09,2.51c-1.21,2.51-2.32,5.06-3.27,7.66a.24.24,0,0,0,.07.28s0,0,0,.07l-.06-.05a1.68,1.68,0,0,0-2.45,1.08.24.24,0,0,0,.41.2c.41-.45,1.07-.9,1.67-.5s.33,1.05.31,1.65c0,.28.34.38.55.26a1.29,1.29,0,0,0,.17-.15l0,.18c0,.19.31.13.35,0a1.76,1.76,0,0,1,.92-1.14c.52-.23.94,0,1.45.13a.39.39,0,0,0,.39-.59,1.45,1.45,0,0,0-1-.56c1.24-1.86,2.44-3.8,3.61-5.76a2.77,2.77,0,0,1,1.84,4.69.37.37,0,0,0,.31.6,3.77,3.77,0,0,1,3.51,2.2,2.84,2.84,0,0,1-.09,2.05A5.37,5.37,0,0,1,101,27.65a.27.27,0,0,0-.22-.31h0a1.9,1.9,0,0,0-.21-1.45.4.4,0,0,0-.68.05,9.93,9.93,0,0,0-.17,1.44,10.6,10.6,0,0,0-.47,1.41.25.25,0,0,0,.33.28,1.28,1.28,0,0,0,.69-.5C100.86,29.52,101.32,30.58,100.25,31.47Z"/><path class="cls-1" d="M51.56,41.26a6.83,6.83,0,0,0,4.12-6.63c-.19-5.63-7.14-8.18-10.82-4.26a20,20,0,0,0-1.61-5,.79.79,0,0,0-1.42.12c-3-2.6-6.95-2.5-10.77-2.28-6.7.4-13.62.58-20.22,1.84,0,0,0,0-.06.05a.45.45,0,0,0-.47.34,25,25,0,0,0,.91,17.13C4.68,43.74-2.22,48.77.68,56.17,3.84,64.26,16,66,23.39,66.35a50.35,50.35,0,0,0,17.08-2.13C44.5,63,49.68,61.3,52,57.51c3.75-6-3.15-13.56-9.44-13.25a20.83,20.83,0,0,0,1.67-3.88A7.6,7.6,0,0,0,51.56,41.26Zm-6.44-8.78c1.19,0,2.34-.43,3.56-.18s2.32,1,2.34,2.28c0,3-4.27,1.83-5.9,1.28A21.19,21.19,0,0,0,45.12,32.48ZM45,36.72c1.54.75,3.21,1.42,4.93.94a3.38,3.38,0,0,0,2.6-2.9c.21-3.2-3.33-4.48-6.16-4.1a5,5,0,0,1,7.66,4.45A5.13,5.13,0,0,1,50.2,40c-2.13.54-3.75-.22-5.49-1.27C44.85,38,45,37.38,45,36.72ZM11.25,25.65A141,141,0,0,0,27,25.09c5-.29,9.78-1,14.22,1.76h0c-4,3.72-9,4.82-14.55,4.51-5.24-.3-11.8-.78-15.49-4.94l-.09-.07.09-.63A.22.22,0,0,0,11.25,25.65ZM41.94,46c2.77-.52,6.77,1.88,8.32,4.45,2.3,3.83.39,6.84-2.66,9.1-2.49,1.84-6.19,2.83-9.19,3.65A48.54,48.54,0,0,1,20.1,64.48c-5.42-.64-12-1.91-16-6a7.93,7.93,0,0,1,.49-11.6,15.78,15.78,0,0,1,7.08-3.3A20.09,20.09,0,0,0,13,45.85a4,4,0,0,0-.86,5.47c2.12,3.55,8.06,4.42,11.66,4.85,4.72.56,9.91.09,13.94-2.65,1.91-1.29,3.27-3.15,1.38-4.72a18.8,18.8,0,0,0,2.47-2.87A.87.87,0,0,0,41.94,46ZM13.77,47a16,16,0,0,0,15.67,6.42,17.5,17.5,0,0,0,8.71-3.84c2.06,2.16-6,4.85-7.06,5a22.52,22.52,0,0,1-5.74.28,31.44,31.44,0,0,1-5.78-1c-.89-.23-1.78-.5-2.65-.81C13.63,52.35,12.59,50.31,13.77,47ZM29.3,51.4c-7.66,1.15-12.74-2.68-15.59-8.28l.45-.1c.39-.08.29-.67-.09-.67s-.48,0-.73,0A29.56,29.56,0,0,1,11,28c3.65,4.3,10.44,4.68,15.75,5,5.75.34,11.7-.76,15.59-5.08C44.75,38.05,41.06,49.64,29.3,51.4Z"/><path class="cls-1" d="M21.17,21.55c-3.54,0-1.71-4.56-1.14-6.3.22-.67-.72-1-1.08-.45-1.1,1.6-2,3.76-1.19,5.68a3.25,3.25,0,0,0,3.56,2.14C21.94,22.52,21.78,21.54,21.17,21.55Z"/><path class="cls-1" d="M28.72,13.32a.57.57,0,0,0-.77-.78,5.21,5.21,0,0,0-2.63,4.37,2.76,2.76,0,0,0,2.4,2.73c.57.06.58-.75.13-.92A2.09,2.09,0,0,1,27,15.83,21.51,21.51,0,0,1,28.72,13.32Z"/><path class="cls-1" d="M39,10.61c-.45-.21-1.17.15-.94.72,1.34,3.42-4,3-5.26,5.27-.76,1.3-.58,3.26,1,3.7.54.15,1-.7.4-.94-.94-.41-.77-1.58-.18-2.23A5.44,5.44,0,0,1,36.42,16a6.06,6.06,0,0,0,2.51-1.34C39.93,13.61,40.63,11.37,39,10.61Z"/></g></g></svg>